HIERARCHY
ROOT Hip
{
	OFFSET	0.00  0.00  0.00 
	CHANNELS 6 Xposition Yposition Zposition Xrotation Zrotation Yrotation
	JOINT Abdomen
	{
		OFFSET	0.000000 0.000000 0.000000
		CHANNELS 3 Xrotation Zrotation Yrotation
		JOINT Chest
		{
			OFFSET	0.000000 5.018152 -1.882229
			CHANNELS 3 Xrotation Zrotation Yrotation
			JOINT neckDummy
			{
				OFFSET	0.000000 8.316447 0.784897
				CHANNELS 3 Xrotation Yrotation Zrotation
				JOINT Neck
				{
					OFFSET	0.000000 2.280413 -0.392801
					CHANNELS 3 Xrotation Zrotation Yrotation
					JOINT Head
					{
						OFFSET	0.000000 3.496879 0.529469
						CHANNELS 3 Xrotation Zrotation Yrotation
						End Site
						{
							OFFSET 0.000000 10.353750 0.000000
						}
					}
				}
			}
			JOINT Left Collar
			{
				OFFSET	0.599237 8.316447 0.784897
				CHANNELS 3 Yrotation Zrotation Xrotation
				JOINT Left Shoulder
				{
					OFFSET	6.421198 0.010146 -0.332128
					CHANNELS 3 Zrotation Yrotation Xrotation
					JOINT Left Forearm
					{
						OFFSET	10.552783 0.025574 0.125508
						CHANNELS 3 Yrotation Zrotation Xrotation
						JOINT Left Hand
						{
							OFFSET	11.035963 0.319619 0.041520
							CHANNELS 3 Zrotation Yrotation Xrotation
							End Site
							{
								OFFSET 10.353753 0.000000 0.000000
							}
						}
					}
				}
			}
			JOINT Right Collar
			{
				OFFSET	-0.599237 8.316447 0.784897
				CHANNELS 3 Yrotation Zrotation Xrotation
				JOINT Right Shoulder
				{
					OFFSET	-6.421198 0.010146 -0.332128
					CHANNELS 3 Zrotation Yrotation Xrotation
					JOINT Right Forearm
					{
						OFFSET	-10.552783 0.025574 0.125508
						CHANNELS 3 Yrotation Zrotation Xrotation
						JOINT Right Hand
						{
							OFFSET	-11.035963 0.319619 0.041520
							CHANNELS 3 Zrotation Yrotation Xrotation
							End Site
							{
								OFFSET -10.353753 0.000000 0.000000
							}
						}
					}
				}
			}
		}
	}
	JOINT Left Thigh
	{
		OFFSET	4.500466 -6.400484 -1.832696
		CHANNELS 3 Xrotation Zrotation Yrotation
		JOINT Left Shin
		{
			OFFSET	-1.359117 -18.918689 1.179887
			CHANNELS 3 Xrotation Zrotation Yrotation
			JOINT Left Foot
			{
				OFFSET	-0.652380 -17.215187 -0.312137
				CHANNELS 3 Xrotation Yrotation Zrotation
				End Site
				{
					OFFSET 0.000000 0.000000 10.353752
				}
			}
		}
	}
	JOINT Right Thigh
	{
		OFFSET	-4.500466 -6.400484 -1.832696
		CHANNELS 3 Xrotation Zrotation Yrotation
		JOINT Right Shin
		{
			OFFSET	1.359117 -18.918689 1.179887
			CHANNELS 3 Xrotation Zrotation Yrotation
			JOINT Right Foot
			{
				OFFSET	0.652380 -17.215187 -0.312137
				CHANNELS 3 Xrotation Yrotation Zrotation
				End Site
				{
					OFFSET 0.000000 0.000000 10.353752
				}
			}
		}
	}
}
MOTION
Frames:     11
Frame Time: 0.041667
-0.012945 39.321809 4.311809 2.769890 -3.636730 -0.617974 -3.665710 3.114680 -0.605353 0.349942 2.319760 -5.153310 0.000000 0.000000 0.000000 0.527010 -0.018551 0.002722 0.701269 -0.529859 2.281890 -3.630010 -2.466760 -0.371767 -70.365150 -8.792848 11.569126 -20.955809 -26.700411 8.581011 -6.735856 -12.971914 0.754177 -1.378010 2.036320 -0.088215 74.097603 -21.614868 -16.771723 3.444306 9.973708 -0.175978 -0.373514 -7.725406 0.198098 3.060408 4.086749 -1.266125 49.368336 -4.754926 -4.056597 -5.066857 9.262210 -0.491351 -37.491375 1.227574 -5.996198 26.093472 5.058443 1.559253 -20.563961 5.557988 -5.333015 
-0.012945 38.730907 4.604428 4.640444 -2.733536 -0.674536 -3.185071 2.185433 -0.602717 0.127722 1.295686 -4.362909 0.000000 0.000000 0.000000 -0.021513 0.229239 -1.290351 0.428934 -0.559129 2.229142 -4.467031 -2.380371 -0.340372 -70.235497 -7.912741 10.751770 -19.950377 -26.074087 9.115807 -4.692781 -10.622040 -1.343703 -2.351245 2.781808 -0.085471 74.038048 -20.558113 -17.190376 8.812654 10.770827 -0.565791 0.821895 -4.317151 -0.738228 13.295497 2.966804 -1.676269 37.889107 -4.424763 -3.261889 5.015156 13.531109 -4.129178 -39.239689 0.283297 -6.054851 32.355988 4.963738 2.082696 -22.918989 3.725989 -6.277952 
-0.012945 38.902305 4.804037 7.239297 -1.540960 -0.884045 -2.631997 1.072700 -0.447390 0.013569 0.168667 -4.055111 0.000000 0.000000 0.000000 0.021762 0.446337 -0.123486 0.130144 -0.925708 1.513514 -3.438631 -2.811074 -0.300085 -70.154076 -5.807077 8.914571 -19.065718 -25.176382 8.214211 -3.382086 -6.960041 -2.786957 -1.172514 2.877599 -0.301362 73.536682 -18.277287 -16.535341 14.720842 12.935466 -1.037581 0.502341 -0.721510 -3.694818 2.353708 2.353780 -1.208799 50.235542 -4.628896 -4.779591 8.577941 15.603062 -6.987309 -36.433395 -0.582506 -5.440324 30.951944 4.863935 1.760238 -6.338979 2.616601 -7.238129 
-0.012945 39.833581 4.907962 9.678732 -0.193656 -1.165763 -2.324616 -0.067315 -0.456146 -0.137964 -0.159911 -2.567751 0.000000 0.000000 0.000000 -0.102443 0.050583 -0.811658 -0.617407 -1.749016 0.180708 -3.216248 -2.980210 -0.407350 -70.060204 -3.693513 5.836651 -16.376236 -23.997849 7.836096 -2.312604 -3.529590 -3.094241 -1.465177 1.782313 -0.556416 73.427170 -15.468439 -14.881705 20.693567 14.579883 -2.033430 1.547933 2.348741 -4.361192 -11.240779 2.458438 -0.680838 61.887558 -4.660989 -5.779159 8.867828 16.253632 -8.149060 -32.160545 -1.954147 -4.852949 28.075066 4.979006 1.707115 -11.976247 2.845918 -6.557612 
-0.012945 40.997122 4.749937 11.102528 0.553460 -1.547651 -1.528005 -0.208153 -0.444450 -0.143587 -0.601800 -0.773396 0.000000 0.000000 0.000000 -0.143936 -0.160928 -0.312129 -1.570610 -2.764992 -0.148322 -1.676996 -3.658481 -0.411144 -68.705399 -0.879669 2.942774 -13.263090 -23.188177 7.480083 -0.481271 -0.513043 -3.162631 -0.839107 -0.030775 -0.907405 74.542213 -12.479627 -12.096629 25.047129 16.825905 -2.822708 2.457775 5.642036 -3.218032 -23.069160 2.265168 0.821886 68.214668 -3.630812 -7.173704 12.105385 17.405638 -7.315943 -26.331297 -2.107677 -4.682558 20.958487 3.669729 1.242750 -8.746241 3.222929 -5.385255 
-0.012945 42.084023 4.477597 12.071154 1.402839 -2.084492 -1.642024 -0.495432 -0.357396 -0.369163 -0.871324 0.494874 0.000000 0.000000 0.000000 -0.254787 -0.321874 0.069513 -2.132602 -1.968408 -0.102092 -0.442870 -3.946469 -0.571601 -67.814491 2.987068 -1.094270 -10.455387 -20.872494 6.247027 -0.888672 1.089937 -2.117597 0.194386 -0.180559 -2.075763 74.901443 -8.788685 -8.397497 27.067999 18.973932 -1.986908 3.891467 8.857076 -0.905243 -32.457371 2.097413 0.673591 70.160248 -4.514544 -7.097671 13.267992 15.390652 -3.406411 -22.225685 -2.687042 -4.214391 17.408903 3.637135 0.286181 -5.472799 4.421619 -4.360243 
-0.012945 42.754431 4.245150 12.467220 1.836069 -2.388299 -2.313329 -1.048838 -0.449093 -0.558306 -1.180300 1.512212 0.000000 0.000000 0.000000 -0.299102 -0.300143 0.149014 -2.081267 -0.854063 0.137797 -0.478160 -4.067293 -0.586173 -68.033279 6.846523 -3.729931 -7.708576 -19.238976 3.624815 -0.326931 3.676933 -0.000763 -0.074287 -0.069245 -3.163510 74.645050 -5.096565 -3.401424 27.714619 20.849508 -0.809514 5.254040 11.142239 0.692376 -39.314304 1.927237 1.117157 65.918480 -4.499664 -6.973117 14.187240 10.183139 -1.279543 -20.007198 -3.292013 -4.048323 17.540274 3.784903 0.832674 -4.068071 4.139227 -4.776162 
-0.012945 43.053584 4.008938 12.660777 2.234372 -2.246291 -3.026415 -1.453351 -0.513788 -0.976845 -1.394050 2.317767 0.000000 0.000000 0.000000 -0.175792 -0.030178 0.195144 -1.336680 -0.215601 0.078668 0.226699 -4.967353 -0.454772 -68.701454 10.721206 -7.661453 -4.884694 -16.683590 2.526087 -0.656997 6.117313 -0.021211 0.679991 0.152344 -3.513673 73.645424 -1.406549 -0.388664 27.523968 23.967712 1.252281 6.843996 13.115081 1.669036 -42.148232 1.570275 1.228221 56.753685 -4.648133 -5.762023 9.624004 2.800642 0.816670 -17.930183 -3.790725 -4.081823 19.166437 3.696758 1.120686 -0.610926 3.641337 -5.258796 
-0.012945 42.924101 3.799413 11.844415 2.285981 -2.031618 -3.616373 -1.881037 -0.428068 -1.212429 -1.406990 3.605588 0.000000 0.000000 0.000000 -0.322093 -0.153156 -0.024190 -0.489526 0.031322 -1.095168 0.642357 -5.368514 -0.239785 -69.154404 13.878596 -9.581727 -2.271555 -14.941707 0.747825 0.404226 7.547858 0.042859 1.207534 -0.004882 -3.512780 72.931007 1.933652 2.621230 26.126188 26.203901 3.818759 7.598255 13.311213 2.676492 -40.253887 0.691971 1.194319 42.615719 -4.788459 -4.324217 4.206926 0.316008 2.449256 -13.412462 -4.351338 -3.889896 21.781542 4.043636 1.534091 -3.753437 2.609933 -4.838908 
-0.012945 42.288781 3.665373 10.555350 2.395698 -1.781160 -4.222964 -2.442014 -0.237656 -1.172197 -1.511514 5.021657 0.000000 0.000000 0.000000 -0.293447 0.195487 -0.584606 -0.227960 0.495632 -5.142836 -0.120401 -4.300980 -0.226523 -70.684708 16.861137 -11.821455 -1.058933 -12.964050 0.136583 -0.118185 8.964110 0.887854 1.067093 0.222041 -3.145201 71.811661 4.571009 5.725547 24.397503 27.271034 5.555588 8.733731 14.495682 2.884558 -38.319958 -0.190929 1.470708 28.720922 -3.797434 -3.059212 -5.484407 -1.253603 4.334707 -9.200857 -4.877439 -3.572474 26.936913 4.140359 1.955271 -7.113287 1.982104 -4.098212 
-0.012945 41.327811 3.686814 9.385806 2.265423 -1.242634 -4.015880 -2.716800 -0.385824 -0.947417 -1.488074 5.074379 0.000000 0.000000 0.000000 -0.038721 1.040339 0.065503 -0.164848 0.491213 -7.352193 0.748175 -3.445753 -0.154261 -72.520798 18.801952 -13.806451 -0.524962 -10.709851 0.038648 -1.007087 9.615892 -0.238953 2.643661 0.513570 -2.373906 71.183914 6.679954 9.472501 23.507931 27.059004 5.970724 9.548642 14.617086 3.542358 -38.688335 -0.883134 1.350039 19.735369 -3.331526 -1.977018 -12.908006 -2.707297 5.320984 -6.445394 -5.280795 -3.153681 35.589249 4.624996 2.432883 -8.384934 1.978221 -3.725919 
